<svg xmlns="http://www.w3.org/2000/svg" viewBox="0 0 400 400" width="400" height="400">
  <circle cx="200.0" cy="200.0" r="195.0" fill="#0d1117" stroke="#30363d" stroke-width="2" />
  <polygon data-layer="skin" points="296.01,200.00 296.45,212.70 294.69,225.37 290.49,237.48 284.05,248.53 275.95,258.28 266.84,266.84 257.18,274.52 247.09,281.57 236.43,287.96 224.99,293.26 212.75,296.84 200.00,298.11 187.25,296.84 175.01,293.26 163.57,287.96 152.91,281.57 142.82,274.52 133.16,266.84 124.05,258.28 115.95,248.53 109.51,237.48 105.31,225.37 103.55,212.70 103.99,200.00 106.08,187.64 109.22,175.68 113.09,164.00 117.77,152.52 123.62,141.39 131.06,131.06 140.29,122.18 151.09,115.28 162.95,110.56 175.29,107.79 187.69,106.47 200.00,106.09 212.31,106.47 224.71,107.79 237.05,110.56 248.91,115.28 259.71,122.18 268.94,131.06 276.38,141.39 282.23,152.52 286.91,164.00 290.78,175.68 293.92,187.64" fill="#c1442d" stroke="#7a2415" stroke-width="2" stroke-linejoin="round" />
  <polygon data-layer="flesh" points="289.01,200.00 289.42,211.77 287.79,223.52 283.89,234.75 277.92,244.99 270.41,254.03 261.96,261.96 253.01,269.08 243.66,275.62 233.78,281.54 223.17,286.46 211.82,289.78 200.00,290.95 188.18,289.78 176.83,286.46 166.22,281.54 156.34,275.62 146.99,269.08 138.04,261.96 129.59,254.03 122.08,244.99 116.11,234.75 112.21,223.52 110.58,211.77 110.99,200.00 112.93,188.54 115.84,177.45 119.43,166.63 123.76,155.98 129.19,145.66 136.09,136.09 144.64,127.86 154.65,121.46 165.65,117.08 177.09,114.51 188.58,113.29 200.00,112.94 211.42,113.29 222.91,114.51 234.35,117.08 245.35,121.46 255.36,127.86 263.91,136.09 270.81,145.66 276.24,155.98 280.57,166.63 284.16,177.45 287.07,188.54" fill="#f3e6c6" stroke="#d8c496" stroke-width="1.5" stroke-linejoin="round" />
  <polygon data-layer="core" points="200.00,188.84 203.61,195.03 210.62,196.55 205.84,201.90 206.56,209.03 200.00,206.14 193.44,209.03 194.16,201.90 189.38,196.55 196.39,195.03" fill="#e4d98f" stroke="#b3a45f" stroke-width="1.5" stroke-linejoin="round" />
</svg>
