<svg xmlns="http://www.w3.org/2000/svg" viewBox="0 0 400 400" width="400" height="400">
  <circle cx="200.0" cy="200.0" r="195.0" fill="#0d1117" stroke="#30363d" stroke-width="2" />
  <polygon data-layer="skin" points="349.33,200.00 352.09,220.02 350.49,240.32 343.68,259.51 332.22,276.34 317.77,290.37 302.24,302.24 286.86,313.20 271.76,324.29 256.16,335.59 239.10,345.91 220.18,353.32 200.00,356.03 179.82,353.32 160.90,345.91 143.84,335.59 128.24,324.29 113.14,313.20 97.76,302.24 82.23,290.37 67.78,276.34 56.32,259.51 49.51,240.32 47.91,220.02 50.67,200.00 56.00,181.04 62.01,163.03 67.76,145.22 73.58,127.01 80.84,108.56 91.06,91.06 105.05,76.26 122.44,65.66 141.87,59.67 161.80,57.44 181.20,57.22 200.00,57.37 218.80,57.22 238.20,57.44 258.13,59.67 277.56,65.66 294.95,76.26 308.94,91.06 319.16,108.56 326.42,127.01 332.24,145.22 337.99,163.03 344.00,181.04" fill="#c1442d" stroke="#7a2415" stroke-width="2" stroke-linejoin="round" />
  <polygon data-layer="flesh" points="342.33,200.00 344.96,219.08 343.43,238.43 336.94,256.72 326.02,272.76 312.25,286.13 297.45,297.45 282.79,307.89 268.40,318.47 253.53,329.23 237.26,339.07 219.24,346.13 200.00,348.71 180.76,346.13 162.74,339.07 146.47,329.23 131.60,318.47 117.21,307.89 102.55,297.45 87.75,286.13 73.98,272.76 63.06,256.72 56.57,238.43 55.04,219.08 57.67,200.00 62.75,181.93 68.48,164.76 73.96,147.79 79.51,130.43 86.42,112.85 96.17,96.17 109.50,82.06 126.07,71.95 144.60,66.25 163.59,64.12 182.08,63.91 200.00,64.06 217.92,63.91 236.41,64.12 255.40,66.25 273.93,71.95 290.50,82.06 303.83,96.17 313.58,112.85 320.49,130.43 326.04,147.79 331.52,164.76 337.25,181.93" fill="#f3e6c6" stroke="#d8c496" stroke-width="1.5" stroke-linejoin="round" />
  <polygon data-layer="core" points="200.00,158.18 213.52,181.39 239.77,187.08 221.88,207.11 224.58,233.83 200.00,223.00 175.42,233.83 178.12,207.11 160.23,187.08 186.48,181.39" fill="#e4d98f" stroke="#b3a45f" stroke-width="1.5" stroke-linejoin="round" />
  <ellipse data-layer="seed" cx="200.00" cy="164.45" rx="7.00" ry="4.00" transform="rotate(0.0 200.00 164.45)" fill="#3b2414" stroke="#1f1109" stroke-width="1" />
  <ellipse data-layer="seed" cx="233.81" cy="189.01" rx="7.00" ry="4.00" transform="rotate(72.0 233.81 189.01)" fill="#3b2414" stroke="#1f1109" stroke-width="1" />
  <ellipse data-layer="seed" cx="220.89" cy="228.76" rx="7.00" ry="4.00" transform="rotate(144.0 220.89 228.76)" fill="#3b2414" stroke="#1f1109" stroke-width="1" />
  <ellipse data-layer="seed" cx="179.11" cy="228.76" rx="7.00" ry="4.00" transform="rotate(216.0 179.11 228.76)" fill="#3b2414" stroke="#1f1109" stroke-width="1" />
  <ellipse data-layer="seed" cx="166.19" cy="189.01" rx="7.00" ry="4.00" transform="rotate(288.0 166.19 189.01)" fill="#3b2414" stroke="#1f1109" stroke-width="1" />
</svg>
