<svg xmlns="http://www.w3.org/2000/svg" viewBox="0 0 400 400" width="400" height="400">
  <circle cx="200.0" cy="200.0" r="195.0" fill="#0d1117" stroke="#30363d" stroke-width="2" />
  <polygon data-layer="skin" points="335.58,200.00 337.49,218.10 335.71,236.36 329.60,253.68 319.62,269.06 307.03,282.13 293.32,293.32 279.46,303.55 265.58,313.59 251.14,323.45 235.43,332.23 218.22,338.42 200.00,340.67 181.78,338.42 164.57,332.23 148.86,323.45 134.42,313.59 120.54,303.55 106.68,293.32 92.97,282.13 80.38,269.06 70.40,253.68 64.29,236.36 62.51,218.10 64.42,200.00 68.66,182.71 73.80,166.18 79.09,149.92 84.79,133.49 91.91,117.06 101.59,101.59 114.39,88.43 130.01,78.77 147.37,72.94 165.25,70.32 182.83,69.59 200.00,69.52 217.17,69.59 234.75,70.32 252.63,72.94 269.99,78.77 285.61,88.43 298.41,101.59 308.09,117.06 315.21,133.49 320.91,149.92 326.20,166.18 331.34,182.71" fill="#c1442d" stroke="#7a2415" stroke-width="2" stroke-linejoin="round" />
  <polygon data-layer="flesh" points="328.58,200.00 330.39,217.17 328.70,234.49 322.91,250.91 313.44,265.50 301.51,277.89 288.50,288.50 275.36,298.20 262.20,307.73 248.50,317.08 233.60,325.40 217.28,331.28 200.00,333.41 182.72,331.28 166.40,325.40 151.50,317.08 137.80,307.73 124.64,298.20 111.50,288.50 98.49,277.89 86.56,265.50 77.09,250.91 71.30,234.49 69.61,217.17 71.42,200.00 75.44,183.60 80.31,167.93 85.34,152.50 90.74,136.92 97.49,121.34 106.67,106.67 118.81,94.19 133.62,85.03 150.09,79.50 167.05,77.01 183.72,76.33 200.00,76.26 216.28,76.33 232.95,77.01 249.91,79.50 266.38,85.03 281.19,94.19 293.33,106.67 302.51,121.34 309.26,136.92 314.66,152.50 319.69,167.93 324.56,183.60" fill="#f3e6c6" stroke="#d8c496" stroke-width="1.5" stroke-linejoin="round" />
  <polygon data-layer="core" points="200.00,167.89 210.38,185.71 230.53,190.08 216.79,205.46 218.87,225.97 200.00,217.66 181.13,225.97 183.21,205.46 169.47,190.08 189.62,185.71" fill="#e4d98f" stroke="#b3a45f" stroke-width="1.5" stroke-linejoin="round" />
  <ellipse data-layer="seed" cx="200.00" cy="172.71" rx="5.19" ry="2.96" transform="rotate(0.0 200.00 172.71)" fill="#3b2414" stroke="#1f1109" stroke-width="1" />
  <ellipse data-layer="seed" cx="225.95" cy="191.57" rx="5.19" ry="2.96" transform="rotate(72.0 225.95 191.57)" fill="#3b2414" stroke="#1f1109" stroke-width="1" />
  <ellipse data-layer="seed" cx="216.04" cy="222.08" rx="5.19" ry="2.96" transform="rotate(144.0 216.04 222.08)" fill="#3b2414" stroke="#1f1109" stroke-width="1" />
  <ellipse data-layer="seed" cx="183.96" cy="222.08" rx="5.19" ry="2.96" transform="rotate(216.0 183.96 222.08)" fill="#3b2414" stroke="#1f1109" stroke-width="1" />
  <ellipse data-layer="seed" cx="174.05" cy="191.57" rx="5.19" ry="2.96" transform="rotate(288.0 174.05 191.57)" fill="#3b2414" stroke="#1f1109" stroke-width="1" />
</svg>
