<svg xmlns="http://www.w3.org/2000/svg" viewBox="0 0 400 400" width="400" height="400">
  <circle cx="200.0" cy="200.0" r="195.0" fill="#0d1117" stroke="#30363d" stroke-width="2" />
  <polygon data-layer="skin" points="285.65,200.00 285.91,211.31 284.26,222.58 280.53,233.36 274.88,243.23 267.78,252.01 259.75,259.75 251.15,266.66 242.12,272.95 232.54,278.55 222.28,283.14 211.35,286.21 200.00,287.29 188.65,286.21 177.72,283.14 167.46,278.55 157.88,272.95 148.85,266.66 140.25,259.75 132.22,252.01 125.12,243.23 119.47,233.36 115.74,222.58 114.09,211.31 114.35,200.00 116.07,188.95 118.79,178.24 122.27,167.80 126.53,157.58 131.88,147.73 138.62,138.62 146.87,130.76 156.47,124.60 166.98,120.29 177.94,117.68 188.99,116.37 200.00,115.99 211.01,116.37 222.06,117.68 233.02,120.29 243.53,124.60 253.13,130.76 261.38,138.62 268.12,147.73 273.47,157.58 277.73,167.80 281.21,178.24 283.93,188.95" fill="#c1442d" stroke="#7a2415" stroke-width="2" stroke-linejoin="round" />
  <polygon data-layer="flesh" points="278.65,200.00 278.89,210.39 277.37,220.73 273.95,230.63 268.76,239.70 262.24,247.76 254.86,254.86 246.97,261.22 238.67,266.99 229.88,272.13 220.46,276.35 210.42,279.16 200.00,280.15 189.58,279.16 179.54,276.35 170.12,272.13 161.33,266.99 153.03,261.22 145.14,254.86 137.76,247.76 131.24,239.70 126.05,230.63 122.63,220.73 121.11,210.39 121.35,200.00 122.93,189.85 125.43,180.02 128.62,170.43 132.54,161.05 137.45,152.00 143.63,143.63 151.21,136.42 160.02,130.76 169.68,126.80 179.74,124.40 189.89,123.20 200.00,122.85 210.11,123.20 220.26,124.40 230.32,126.80 239.98,130.76 248.79,136.42 256.37,143.63 262.55,152.00 267.46,161.05 271.38,170.43 274.57,180.02 277.07,189.85" fill="#f3e6c6" stroke="#d8c496" stroke-width="1.5" stroke-linejoin="round" />
  <polygon data-layer="core" points="200.00,192.52 202.42,196.67 207.11,197.69 203.91,201.27 204.39,206.05 200.00,204.11 195.61,206.05 196.09,201.27 192.89,197.69 197.58,196.67" fill="#e4d98f" stroke="#b3a45f" stroke-width="1.5" stroke-linejoin="round" />
</svg>
